<svg id="mermaid-1634023328667" width="100%" xmlns="http://www.w3.org/2000/svg" xmlns:xlink="http://www.w3.org/1999/xlink" height="171" style="max-width: 463px;" viewBox="-20 -20 463 171"><style>#mermaid-1634023328667{font-family:"trebuchet ms",verdana,arial,sans-serif;font-size:16px;fill:#333;}#mermaid-1634023328667 .error-icon{fill:#552222;}#mermaid-1634023328667 .error-text{fill:#552222;stroke:#552222;}#mermaid-1634023328667 .edge-thickness-normal{stroke-width:2px;}#mermaid-1634023328667 .edge-thickness-thick{stroke-width:3.5px;}#mermaid-1634023328667 .edge-pattern-solid{stroke-dasharray:0;}#mermaid-1634023328667 .edge-pattern-dashed{stroke-dasharray:3;}#mermaid-1634023328667 .edge-pattern-dotted{stroke-dasharray:2;}#mermaid-1634023328667 .marker{fill:#333333;stroke:#333333;}#mermaid-1634023328667 .marker.cross{stroke:#333333;}#mermaid-1634023328667 svg{font-family:"trebuchet ms",verdana,arial,sans-serif;font-size:16px;}#mermaid-1634023328667 g.classGroup text{fill:#9370DB;fill:#131300;stroke:none;font-family:"trebuchet ms",verdana,arial,sans-serif;font-size:10px;}#mermaid-1634023328667 g.classGroup text .title{font-weight:bolder;}#mermaid-1634023328667 .classTitle{font-weight:bolder;}#mermaid-1634023328667 .node rect,#mermaid-1634023328667 .node circle,#mermaid-1634023328667 .node ellipse,#mermaid-1634023328667 .node polygon,#mermaid-1634023328667 .node path{fill:#ECECFF;stroke:#9370DB;stroke-width:1px;}#mermaid-1634023328667 .divider{stroke:#9370DB;stroke:1;}#mermaid-1634023328667 g.clickable{cursor:pointer;}#mermaid-1634023328667 g.classGroup rect{fill:#ECECFF;stroke:#9370DB;}#mermaid-1634023328667 g.classGroup line{stroke:#9370DB;stroke-width:1;}#mermaid-1634023328667 .classLabel .box{stroke:none;stroke-width:0;fill:#ECECFF;opacity:0.5;}#mermaid-1634023328667 .classLabel .label{fill:#9370DB;font-size:10px;}#mermaid-1634023328667 .relation{stroke:#333333;stroke-width:1;fill:none;}#mermaid-1634023328667 .dashed-line{stroke-dasharray:3;}#mermaid-1634023328667 #compositionStart,#mermaid-1634023328667 .composition{fill:#333333 !important;stroke:#333333 !important;stroke-width:1;}#mermaid-1634023328667 #compositionEnd,#mermaid-1634023328667 .composition{fill:#333333 !important;stroke:#333333 !important;stroke-width:1;}#mermaid-1634023328667 #dependencyStart,#mermaid-1634023328667 .dependency{fill:#333333 !important;stroke:#333333 !important;stroke-width:1;}#mermaid-1634023328667 #dependencyStart,#mermaid-1634023328667 .dependency{fill:#333333 !important;stroke:#333333 !important;stroke-width:1;}#mermaid-1634023328667 #extensionStart,#mermaid-1634023328667 .extension{fill:#333333 !important;stroke:#333333 !important;stroke-width:1;}#mermaid-1634023328667 #extensionEnd,#mermaid-1634023328667 .extension{fill:#333333 !important;stroke:#333333 !important;stroke-width:1;}#mermaid-1634023328667 #aggregationStart,#mermaid-1634023328667 .aggregation{fill:#ECECFF !important;stroke:#333333 !important;stroke-width:1;}#mermaid-1634023328667 #aggregationEnd,#mermaid-1634023328667 .aggregation{fill:#ECECFF !important;stroke:#333333 !important;stroke-width:1;}#mermaid-1634023328667 .edgeTerminals{font-size:11px;}#mermaid-1634023328667:root{--mermaid-font-family:"trebuchet ms",verdana,arial,sans-serif;}#mermaid-1634023328667 class{fill:apa;}</style><g></g><defs><marker id="extensionStart" class="extension" refX="0" refY="7" markerWidth="190" markerHeight="240" orient="auto"><path d="M 1,7 L18,13 V 1 Z"></path></marker></defs><defs><marker id="extensionEnd" refX="19" refY="7" markerWidth="20" markerHeight="28" orient="auto"><path d="M 1,1 V 13 L18,7 Z"></path></marker></defs><defs><marker id="compositionStart" class="extension" refX="0" refY="7" markerWidth="190" markerHeight="240" orient="auto"><path d="M 18,7 L9,13 L1,7 L9,1 Z"></path></marker></defs><defs><marker id="compositionEnd" refX="19" refY="7" markerWidth="20" markerHeight="28" orient="auto"><path d="M 18,7 L9,13 L1,7 L9,1 Z"></path></marker></defs><defs><marker id="aggregationStart" class="extension" refX="0" refY="7" markerWidth="190" markerHeight="240" orient="auto"><path d="M 18,7 L9,13 L1,7 L9,1 Z"></path></marker></defs><defs><marker id="aggregationEnd" refX="19" refY="7" markerWidth="20" markerHeight="28" orient="auto"><path d="M 18,7 L9,13 L1,7 L9,1 Z"></path></marker></defs><defs><marker id="dependencyStart" class="extension" refX="0" refY="7" markerWidth="190" markerHeight="240" orient="auto"><path d="M 5,7 L9,13 L1,7 L9,1 Z"></path></marker></defs><defs><marker id="dependencyEnd" refX="19" refY="7" markerWidth="20" markerHeight="28" orient="auto"><path d="M 18,7 L9,13 L14,7 L9,1 Z"></path></marker></defs><g id="classid-Account-0" class="classGroup" transform="translate(130.25,0 )"><rect x="0" y="0" width="175" height="51" class=" "></rect><text y="15" x="0"><tspan class="title" x="67">Account</tspan></text><line x1="0" y1="21" y2="21" x2="175"></line><text x="5" y="31" fill="white" class="classText"><tspan x="5">- accountNumber: AccountNumber</tspan><tspan x="5" dy="10">- owner: PersonId</tspan></text><line x1="0" y1="47" y2="47" x2="175"></line><text x="5" y="62" fill="white" class="classText"></text></g><g id="classid-AccountAliases-1" class="classGroup" transform="translate(232,101 )"><rect x="0" y="0" width="87" height="30" class=" "></rect><text y="15" x="0"><tspan class="title" x="5">AccountAliases</tspan></text><line x1="0" y1="21" y2="21" x2="87"></line><text x="5" y="31" fill="white" class="classText"></text><line x1="0" y1="26" y2="26" x2="87"></line><text x="5" y="41" fill="white" class="classText"></text></g><g id="classid-AccountNumber-2" class="classGroup" transform="translate(0,101 )"><rect x="0" y="0" width="88" height="30" class=" "></rect><text y="15" x="0"><tspan class="title" x="5">AccountNumber</tspan></text><line x1="0" y1="21" y2="21" x2="88"></line><text x="5" y="31" fill="white" class="classText"></text><line x1="0" y1="26" y2="26" x2="88"></line><text x="5" y="41" fill="white" class="classText"></text></g><g id="classid-BankId-3" class="classGroup" transform="translate(138,101 )"><rect x="0" y="0" width="44" height="30" class=" "></rect><text y="15" x="0"><tspan class="title" x="5">BankId</tspan></text><line x1="0" y1="21" y2="21" x2="44"></line><text x="5" y="31" fill="white" class="classText"></text><line x1="0" y1="26" y2="26" x2="44"></line><text x="5" y="41" fill="white" class="classText"></text></g><g id="classid-PersonId-4" class="classGroup" transform="translate(369,101 )"><rect x="0" y="0" width="54" height="30" class=" "></rect><text y="15" x="0"><tspan class="title" x="5">PersonId</tspan></text><line x1="0" y1="21" y2="21" x2="54"></line><text x="5" y="31" fill="white" class="classText"></text><line x1="0" y1="26" y2="26" x2="54"></line><text x="5" y="41" fill="white" class="classText"></text></g><path d="M130.25,50.931654676258994L115.875,55.10971223021583C101.5,59.28776978417267,72.75,67.64388489208633,58.375,75.98860911270982C44,84.33333333333333,44,92.66666666666667,44,96.83333333333333L44,101" id="edge0" class="relation" marker-start="url(#compositionStart)"></path><g class="classLabel"><rect class="box" x="44.609375" y="55.453125" width="61.015625" height="16.015625"></rect><text class="label" x="75.12171691494808" y="66.95455134270574" fill="red" text-anchor="middle">identified by</text></g><g class="cardinality"><text class="type1" x="115.45573771128709" y="44.8177522127937" fill="black" font-size="6">1</text></g><g class="cardinality"><text class="type2" x="49" y="88.5" fill="black" font-size="6">1</text></g><path d="M188.5891089108911,51L183.82425742574256,55.166666666666664C179.05940594059408,59.333333333333336,169.52970297029705,67.66666666666667,164.7648514851485,76C160,84.33333333333333,160,92.66666666666667,160,96.83333333333333L160,101" id="edge1" class="relation"></path><g class="cardinality"><text class="type1" x="175.8880079426795" y="55.46453068029501" fill="black" font-size="6">*</text></g><g class="cardinality"><text class="type2" x="165" y="88.5" fill="black" font-size="6">1</text></g><path d="M246.9108910891089,51L251.67574257425744,55.166666666666664C256.4405940594059,59.333333333333336,265.970297029703,67.66666666666667,270.73514851485146,76C275.5,84.33333333333333,275.5,92.66666666666667,275.5,96.83333333333333L275.5,101" id="edge2" class="relation" marker-start="url(#compositionStart)"></path><g class="cardinality"><text class="type1" x="249.73788405637603" y="66.75620864177111" fill="black" font-size="6">1</text></g><g class="cardinality"><text class="type2" x="280.5" y="88.5" fill="black" font-size="6">1</text></g><path d="M305.25,50.28962131837307L320.375,54.57468443197755C335.5,58.859747545582046,365.75,67.42987377279103,380.875,75.88160355306218C396,84.33333333333333,396,92.66666666666667,396,96.83333333333333L396,101" id="edge3" class="relation"></path><g class="classLabel"><rect class="box" x="346.140625" y="55.046875" width="34.015625" height="16.015625"></rect><text class="label" x="362.6516578098904" y="66.55208257727611" fill="red" text-anchor="middle">owner</text></g><g class="cardinality"><text class="type1" x="315.9137490426546" y="58.50755636041881" fill="black" font-size="6">*</text></g><g class="cardinality"><text class="type2" x="401" y="88.5" fill="black" font-size="6">1</text></g></svg>